G04 #@! TF.GenerationSoftware,KiCad,Pcbnew,5.1.6-c6e7f7d~86~ubuntu19.10.1*
G04 #@! TF.CreationDate,2020-10-06T14:20:37+02:00*
G04 #@! TF.ProjectId,logair_diy,6c6f6761-6972-45f6-9469-792e6b696361,rev?*
G04 #@! TF.SameCoordinates,Original*
G04 #@! TF.FileFunction,Copper,L1,Top*
G04 #@! TF.FilePolarity,Positive*
%FSLAX46Y46*%
G04 Gerber Fmt 4.6, Leading zero omitted, Abs format (unit mm)*
G04 Created by KiCad (PCBNEW 5.1.6-c6e7f7d~86~ubuntu19.10.1) date 2020-10-06 14:20:37*
%MOMM*%
%LPD*%
G01*
G04 APERTURE LIST*
G04 #@! TA.AperFunction,ComponentPad*
%ADD10O,1.700000X1.700000*%
G04 #@! TD*
G04 #@! TA.AperFunction,ComponentPad*
%ADD11R,1.700000X1.700000*%
G04 #@! TD*
G04 #@! TA.AperFunction,ComponentPad*
%ADD12C,1.524000*%
G04 #@! TD*
G04 #@! TA.AperFunction,ComponentPad*
%ADD13C,0.760000*%
G04 #@! TD*
G04 #@! TA.AperFunction,Conductor*
%ADD14C,0.250000*%
G04 #@! TD*
G04 APERTURE END LIST*
D10*
G04 #@! TO.P,J3,6*
G04 #@! TO.N,Net-(J3-Pad6)*
X128790000Y-118480000D03*
G04 #@! TO.P,J3,5*
G04 #@! TO.N,Net-(J3-Pad5)*
X126250000Y-118480000D03*
G04 #@! TO.P,J3,4*
G04 #@! TO.N,/5V*
X128790000Y-115940000D03*
G04 #@! TO.P,J3,3*
X126250000Y-115940000D03*
G04 #@! TO.P,J3,2*
G04 #@! TO.N,/5Vin*
X128790000Y-113400000D03*
D11*
G04 #@! TO.P,J3,1*
X126250000Y-113400000D03*
G04 #@! TD*
D12*
G04 #@! TO.P,U2,6*
G04 #@! TO.N,/3V3*
X131410000Y-80150000D03*
G04 #@! TO.P,U2,5*
G04 #@! TO.N,/SD_CS*
X128870000Y-80150000D03*
G04 #@! TO.P,U2,4*
G04 #@! TO.N,/MOSI*
X126330000Y-80150000D03*
G04 #@! TO.P,U2,3*
G04 #@! TO.N,/CLK*
X123790000Y-80150000D03*
G04 #@! TO.P,U2,2*
G04 #@! TO.N,/MISO*
X121250000Y-80150000D03*
G04 #@! TO.P,U2,1*
G04 #@! TO.N,/GND*
X118710000Y-80150000D03*
G04 #@! TD*
G04 #@! TO.P,U3,1*
G04 #@! TO.N,/BLE_PWRC*
X105680000Y-64820000D03*
G04 #@! TO.P,U3,2*
G04 #@! TO.N,/5V*
X105680000Y-67360000D03*
G04 #@! TO.P,U3,3*
G04 #@! TO.N,/GND*
X105680000Y-69900000D03*
G04 #@! TO.P,U3,4*
G04 #@! TO.N,/BLE_TX*
X105680000Y-72440000D03*
G04 #@! TO.P,U3,5*
G04 #@! TO.N,/BLE_RX*
X105680000Y-74980000D03*
G04 #@! TO.P,U3,6*
G04 #@! TO.N,/BLE_STAT*
X105680000Y-77520000D03*
G04 #@! TD*
D10*
G04 #@! TO.P,J2,2*
G04 #@! TO.N,/GND*
X113490000Y-78450000D03*
D11*
G04 #@! TO.P,J2,1*
G04 #@! TO.N,/5Vin*
X110950000Y-78450000D03*
G04 #@! TD*
D10*
G04 #@! TO.P,J1,6*
G04 #@! TO.N,Net-(J1-Pad6)*
X165330000Y-113610000D03*
G04 #@! TO.P,J1,5*
G04 #@! TO.N,Net-(J1-Pad5)*
X165330000Y-116150000D03*
G04 #@! TO.P,J1,4*
G04 #@! TO.N,/5V*
X162790000Y-113610000D03*
G04 #@! TO.P,J1,3*
X162790000Y-116150000D03*
G04 #@! TO.P,J1,2*
G04 #@! TO.N,/5Vin*
X160250000Y-113610000D03*
D11*
G04 #@! TO.P,J1,1*
X160250000Y-116150000D03*
G04 #@! TD*
D13*
G04 #@! TO.P,U5,2*
G04 #@! TO.N,/5V*
X145765000Y-87460000D03*
G04 #@! TO.P,U5,1*
X147035000Y-87460000D03*
G04 #@! TO.P,U5,4*
G04 #@! TO.N,/GND*
X145765000Y-88730000D03*
G04 #@! TO.P,U5,3*
X147035000Y-88730000D03*
G04 #@! TO.P,U5,6*
G04 #@! TO.N,Net-(U5-Pad6)*
X145765000Y-90000000D03*
G04 #@! TO.P,U5,5*
G04 #@! TO.N,Net-(U5-Pad5)*
X147035000Y-90000000D03*
G04 #@! TO.P,U5,8*
G04 #@! TO.N,Net-(U5-Pad8)*
X145765000Y-91270000D03*
G04 #@! TO.P,U5,7*
G04 #@! TO.N,/PM_RX*
X147035000Y-91270000D03*
G04 #@! TO.P,U5,10*
G04 #@! TO.N,Net-(U5-Pad10)*
X145765000Y-92540000D03*
G04 #@! TO.P,U5,9*
G04 #@! TO.N,/PM_TX*
X147035000Y-92540000D03*
G04 #@! TD*
D12*
G04 #@! TO.P,U4,6*
G04 #@! TO.N,/3V3*
X149250000Y-77310000D03*
G04 #@! TO.P,U4,5*
G04 #@! TO.N,/GND*
X149250000Y-74770000D03*
G04 #@! TO.P,U4,4*
G04 #@! TO.N,/CLK*
X149250000Y-72230000D03*
G04 #@! TO.P,U4,3*
G04 #@! TO.N,/MOSI*
X149250000Y-69690000D03*
G04 #@! TO.P,U4,2*
G04 #@! TO.N,/BME_CS*
X149250000Y-67150000D03*
G04 #@! TO.P,U4,1*
G04 #@! TO.N,/MISO*
X149250000Y-64610000D03*
G04 #@! TD*
D11*
G04 #@! TO.P,GPS_conn_5pin1,1*
G04 #@! TO.N,/PPS*
X158170000Y-64150000D03*
D10*
G04 #@! TO.P,GPS_conn_5pin1,2*
G04 #@! TO.N,/GPS_RX*
X160710000Y-64150000D03*
G04 #@! TO.P,GPS_conn_5pin1,3*
G04 #@! TO.N,/GPS_TX*
X163250000Y-64150000D03*
G04 #@! TO.P,GPS_conn_5pin1,4*
G04 #@! TO.N,/GND*
X165790000Y-64150000D03*
G04 #@! TO.P,GPS_conn_5pin1,5*
G04 #@! TO.N,/5V*
X168330000Y-64150000D03*
G04 #@! TD*
D12*
G04 #@! TO.P,U1,GND*
G04 #@! TO.N,/GND*
X155460000Y-116470000D03*
G04 #@! TO.P,U1,PB10*
G04 #@! TO.N,/PM_RX*
X155460000Y-103770000D03*
G04 #@! TO.P,U1,PA3*
G04 #@! TO.N,/GPS_TX*
X155460000Y-85990000D03*
G04 #@! TO.P,U1,PC15*
G04 #@! TO.N,Net-(U1-PadPC15)*
X155460000Y-75830000D03*
G04 #@! TO.P,U1,GND*
G04 #@! TO.N,/GND*
X155460000Y-113930000D03*
G04 #@! TO.P,U1,PA5*
G04 #@! TO.N,/CLK*
X155460000Y-91070000D03*
G04 #@! TO.P,U1,NRST*
G04 #@! TO.N,Net-(U1-PadNRST)*
X155460000Y-108850000D03*
G04 #@! TO.P,U1,PB11*
G04 #@! TO.N,/PM_TX*
X155460000Y-106310000D03*
G04 #@! TO.P,U1,3V3*
G04 #@! TO.N,/3V3*
X155460000Y-111390000D03*
G04 #@! TO.P,U1,PA4*
G04 #@! TO.N,/BME_CS*
X155460000Y-88530000D03*
G04 #@! TO.P,U1,PA6*
G04 #@! TO.N,/MISO*
X155460000Y-93610000D03*
G04 #@! TO.P,U1,PA1*
G04 #@! TO.N,Net-(U1-PadPA1)*
X155460000Y-80910000D03*
G04 #@! TO.P,U1,PB1*
G04 #@! TO.N,Net-(U1-PadPB1)*
X155460000Y-101230000D03*
G04 #@! TO.P,U1,PC14*
G04 #@! TO.N,Net-(U1-PadPC14)*
X155460000Y-73290000D03*
G04 #@! TO.P,U1,PA0*
G04 #@! TO.N,Net-(U1-PadPA0)*
X155460000Y-78370000D03*
G04 #@! TO.P,U1,PA2*
G04 #@! TO.N,/GPS_RX*
X155460000Y-83450000D03*
G04 #@! TO.P,U1,PC13*
G04 #@! TO.N,Net-(U1-PadPC13)*
X155460000Y-70750000D03*
G04 #@! TO.P,U1,PA7*
G04 #@! TO.N,/MOSI*
X155460000Y-96150000D03*
G04 #@! TO.P,U1,VBAT*
G04 #@! TO.N,Net-(U1-PadVBAT)*
X155460000Y-68210000D03*
G04 #@! TO.P,U1,PB0*
G04 #@! TO.N,/SD_CS*
X155460000Y-98690000D03*
G04 #@! TO.P,U1,PB12*
G04 #@! TO.N,Net-(U1-PadPB12)*
X170700000Y-116470000D03*
G04 #@! TO.P,U1,PB13*
G04 #@! TO.N,Net-(U1-PadPB13)*
X170700000Y-113930000D03*
G04 #@! TO.P,U1,PB14*
G04 #@! TO.N,Net-(U1-PadPB14)*
X170700000Y-111390000D03*
G04 #@! TO.P,U1,PB15*
G04 #@! TO.N,Net-(U1-PadPB15)*
X170700000Y-108850000D03*
G04 #@! TO.P,U1,PA8*
G04 #@! TO.N,/BLE_STAT*
X170700000Y-106310000D03*
G04 #@! TO.P,U1,PA11*
G04 #@! TO.N,Net-(U1-PadPA11)*
X170700000Y-98690000D03*
G04 #@! TO.P,U1,PA9*
G04 #@! TO.N,/BLE_RX*
X170700000Y-103770000D03*
G04 #@! TO.P,U1,PA10*
G04 #@! TO.N,/BLE_TX*
X170700000Y-101230000D03*
G04 #@! TO.P,U1,PA12*
G04 #@! TO.N,Net-(U1-PadPA12)*
X170700000Y-96150000D03*
G04 #@! TO.P,U1,PA15*
G04 #@! TO.N,Net-(U1-PadPA15)*
X170700000Y-93610000D03*
G04 #@! TO.P,U1,PB3*
G04 #@! TO.N,Net-(U1-PadPB3)*
X170700000Y-91070000D03*
G04 #@! TO.P,U1,PB5*
G04 #@! TO.N,Net-(U1-PadPB5)*
X170700000Y-85990000D03*
G04 #@! TO.P,U1,PB4*
G04 #@! TO.N,Net-(U1-PadPB4)*
X170700000Y-88530000D03*
G04 #@! TO.P,U1,PB6*
G04 #@! TO.N,Net-(U1-PadPB6)*
X170700000Y-83450000D03*
G04 #@! TO.P,U1,PB7*
G04 #@! TO.N,Net-(U1-PadPB7)*
X170700000Y-80910000D03*
G04 #@! TO.P,U1,5V*
G04 #@! TO.N,/5V*
X170700000Y-73290000D03*
G04 #@! TO.P,U1,PB8*
G04 #@! TO.N,Net-(U1-PadPB8)*
X170700000Y-78370000D03*
G04 #@! TO.P,U1,PB9*
G04 #@! TO.N,Net-(U1-PadPB9)*
X170700000Y-75830000D03*
G04 #@! TO.P,U1,GND*
G04 #@! TO.N,/GND*
X170700000Y-70750000D03*
G04 #@! TO.P,U1,3V3*
G04 #@! TO.N,/3V3*
X170700000Y-68210000D03*
G04 #@! TD*
D14*
G04 #@! TO.N,/BLE_STAT*
X173050000Y-103960000D02*
X173050000Y-65350000D01*
X173050000Y-65350000D02*
X169650000Y-61950000D01*
X103850000Y-75690000D02*
X105930000Y-77770000D01*
X103850000Y-71882822D02*
X103850000Y-75690000D01*
X170700000Y-106310000D02*
X173050000Y-103960000D01*
X169650000Y-61950000D02*
X105007178Y-61950000D01*
X103129978Y-71162800D02*
X103850000Y-71882822D01*
X105007178Y-61950000D02*
X103129978Y-63827200D01*
X103129978Y-63827200D02*
X103129978Y-71162800D01*
G04 #@! TO.N,/BLE_RX*
X172550000Y-65550000D02*
X172550000Y-101920000D01*
X169459990Y-62459989D02*
X172550000Y-65550000D01*
X105133600Y-62459989D02*
X169459990Y-62459989D01*
X103579989Y-64013600D02*
X105133600Y-62459989D01*
X103579989Y-70976400D02*
X103579989Y-64013600D01*
X104300011Y-71696422D02*
X103579989Y-70976400D01*
X104300011Y-73600011D02*
X104300011Y-71696422D01*
X105930000Y-75230000D02*
X104300011Y-73600011D01*
X172550000Y-101920000D02*
X170700000Y-103770000D01*
G04 #@! TO.N,/BLE_TX*
X104030000Y-70790000D02*
X105930000Y-72690000D01*
X104030000Y-64200000D02*
X104030000Y-70790000D01*
X172050000Y-65686410D02*
X169273590Y-62910000D01*
X170700000Y-101230000D02*
X172050000Y-99880000D01*
X105320000Y-62910000D02*
X104030000Y-64200000D01*
X169273590Y-62910000D02*
X105320000Y-62910000D01*
X172050000Y-99880000D02*
X172050000Y-65686410D01*
G04 #@! TO.N,/GND*
X145765000Y-88730000D02*
X147035000Y-88730000D01*
X165790000Y-65840000D02*
X170700000Y-70750000D01*
X165790000Y-64150000D02*
X165790000Y-65840000D01*
G04 #@! TO.N,/5V*
X162790000Y-113610000D02*
X162790000Y-116150000D01*
X145765000Y-87460000D02*
X147035000Y-87460000D01*
X170700000Y-73290000D02*
X170700000Y-73600000D01*
X126250000Y-115940000D02*
X128790000Y-115940000D01*
X116950000Y-82900000D02*
X116950000Y-78630000D01*
X125100000Y-91050000D02*
X116950000Y-82900000D01*
X133050000Y-91050000D02*
X125100000Y-91050000D01*
X154650000Y-112650000D02*
X133050000Y-91050000D01*
X157550000Y-112650000D02*
X154650000Y-112650000D01*
X158150000Y-112050000D02*
X157550000Y-112650000D01*
X116950000Y-78630000D02*
X105930000Y-67610000D01*
X161230000Y-112050000D02*
X158150000Y-112050000D01*
X162790000Y-113610000D02*
X161230000Y-112050000D01*
X159880000Y-119060000D02*
X162790000Y-116150000D01*
X131910000Y-119060000D02*
X159880000Y-119060000D01*
X128790000Y-115940000D02*
X131910000Y-119060000D01*
G04 #@! TO.N,/MISO*
X149250000Y-64610000D02*
X154810000Y-64610000D01*
X154810000Y-64610000D02*
X161750000Y-71550000D01*
X161750000Y-87320000D02*
X155460000Y-93610000D01*
X161750000Y-71550000D02*
X161750000Y-87320000D01*
G04 #@! TO.N,/BME_CS*
X149250000Y-67150000D02*
X152550000Y-70450000D01*
X152550000Y-85620000D02*
X155460000Y-88530000D01*
X152550000Y-70450000D02*
X152550000Y-85620000D01*
G04 #@! TO.N,/MOSI*
X151850000Y-92540000D02*
X155460000Y-96150000D01*
X151850000Y-90550000D02*
X151850000Y-92540000D01*
X146850000Y-85550000D02*
X151850000Y-90550000D01*
X146850000Y-72090000D02*
X146850000Y-85550000D01*
X149250000Y-69690000D02*
X146850000Y-72090000D01*
G04 #@! TO.N,/CLK*
X149250000Y-72230000D02*
X151350000Y-74330000D01*
X151350000Y-86960000D02*
X155460000Y-91070000D01*
X151350000Y-74330000D02*
X151350000Y-86960000D01*
G04 #@! TO.N,/PM_TX*
X147035000Y-97885000D02*
X155460000Y-106310000D01*
X147035000Y-92540000D02*
X147035000Y-97885000D01*
G04 #@! TO.N,/PM_RX*
X147035000Y-91270000D02*
X149150000Y-93385000D01*
X149150000Y-97460000D02*
X155460000Y-103770000D01*
X149150000Y-93385000D02*
X149150000Y-97460000D01*
G04 #@! TO.N,/5Vin*
X160250000Y-113610000D02*
X160250000Y-116150000D01*
X126250000Y-113400000D02*
X128790000Y-113400000D01*
G04 #@! TD*
M02*
