M48
; DRILL file {KiCad 5.1.6-c6e7f7d~86~ubuntu19.10.1} date Tue Oct  6 14:20:47 2020
; FORMAT={3:3/ absolute / metric / suppress leading zeros}
; #@! TF.CreationDate,2020-10-06T14:20:47+02:00
; #@! TF.GenerationSoftware,Kicad,Pcbnew,5.1.6-c6e7f7d~86~ubuntu19.10.1
FMAT,2
METRIC,TZ
T1C0.460
T2C0.762
T3C1.000
%
G90
G05
T1
X145765Y-87460
X145765Y-88730
X145765Y-90000
X145765Y-91270
X145765Y-92540
X147035Y-87460
X147035Y-88730
X147035Y-90000
X147035Y-91270
X147035Y-92540
T2
X105680Y-64820
X105680Y-67360
X105680Y-69900
X105680Y-72440
X105680Y-74980
X105680Y-77520
X155460Y-68210
X155460Y-70750
X155460Y-73290
X155460Y-75830
X155460Y-78370
X155460Y-80910
X155460Y-83450
X155460Y-85990
X155460Y-88530
X155460Y-91070
X155460Y-93610
X155460Y-96150
X155460Y-98690
X155460Y-101230
X155460Y-103770
X155460Y-106310
X155460Y-108850
X155460Y-111390
X155460Y-113930
X155460Y-116470
X170700Y-68210
X170700Y-70750
X170700Y-73290
X170700Y-75830
X170700Y-78370
X170700Y-80910
X170700Y-83450
X170700Y-85990
X170700Y-88530
X170700Y-91070
X170700Y-93610
X170700Y-96150
X170700Y-98690
X170700Y-101230
X170700Y-103770
X170700Y-106310
X170700Y-108850
X170700Y-111390
X170700Y-113930
X170700Y-116470
X149250Y-64610
X149250Y-67150
X149250Y-69690
X149250Y-72230
X149250Y-74770
X149250Y-77310
X118710Y-80150
X121250Y-80150
X123790Y-80150
X126330Y-80150
X128870Y-80150
X131410Y-80150
T3
X160250Y-113610
X160250Y-116150
X162790Y-113610
X162790Y-116150
X165330Y-113610
X165330Y-116150
X110950Y-78450
X113490Y-78450
X158170Y-64150
X160710Y-64150
X163250Y-64150
X165790Y-64150
X168330Y-64150
X126250Y-113400
X126250Y-115940
X126250Y-118480
X128790Y-113400
X128790Y-115940
X128790Y-118480
T0
M30
