G04 #@! TF.GenerationSoftware,KiCad,Pcbnew,5.1.6-c6e7f7d~86~ubuntu19.10.1*
G04 #@! TF.CreationDate,2020-10-06T14:20:37+02:00*
G04 #@! TF.ProjectId,logair_diy,6c6f6761-6972-45f6-9469-792e6b696361,rev?*
G04 #@! TF.SameCoordinates,Original*
G04 #@! TF.FileFunction,Soldermask,Top*
G04 #@! TF.FilePolarity,Negative*
%FSLAX46Y46*%
G04 Gerber Fmt 4.6, Leading zero omitted, Abs format (unit mm)*
G04 Created by KiCad (PCBNEW 5.1.6-c6e7f7d~86~ubuntu19.10.1) date 2020-10-06 14:20:37*
%MOMM*%
%LPD*%
G01*
G04 APERTURE LIST*
%ADD10O,1.800000X1.800000*%
%ADD11R,1.800000X1.800000*%
%ADD12C,1.624000*%
%ADD13C,0.860000*%
G04 APERTURE END LIST*
D10*
G04 #@! TO.C,J3*
X128790000Y-118480000D03*
X126250000Y-118480000D03*
X128790000Y-115940000D03*
X126250000Y-115940000D03*
X128790000Y-113400000D03*
D11*
X126250000Y-113400000D03*
G04 #@! TD*
D12*
G04 #@! TO.C,U2*
X131410000Y-80150000D03*
X128870000Y-80150000D03*
X126330000Y-80150000D03*
X123790000Y-80150000D03*
X121250000Y-80150000D03*
X118710000Y-80150000D03*
G04 #@! TD*
G04 #@! TO.C,U3*
X105680000Y-64820000D03*
X105680000Y-67360000D03*
X105680000Y-69900000D03*
X105680000Y-72440000D03*
X105680000Y-74980000D03*
X105680000Y-77520000D03*
G04 #@! TD*
D10*
G04 #@! TO.C,J2*
X113490000Y-78450000D03*
D11*
X110950000Y-78450000D03*
G04 #@! TD*
D10*
G04 #@! TO.C,J1*
X165330000Y-113610000D03*
X165330000Y-116150000D03*
X162790000Y-113610000D03*
X162790000Y-116150000D03*
X160250000Y-113610000D03*
D11*
X160250000Y-116150000D03*
G04 #@! TD*
D13*
G04 #@! TO.C,U5*
X145765000Y-87460000D03*
X147035000Y-87460000D03*
X145765000Y-88730000D03*
X147035000Y-88730000D03*
X145765000Y-90000000D03*
X147035000Y-90000000D03*
X145765000Y-91270000D03*
X147035000Y-91270000D03*
X145765000Y-92540000D03*
X147035000Y-92540000D03*
G04 #@! TD*
D12*
G04 #@! TO.C,U4*
X149250000Y-77310000D03*
X149250000Y-74770000D03*
X149250000Y-72230000D03*
X149250000Y-69690000D03*
X149250000Y-67150000D03*
X149250000Y-64610000D03*
G04 #@! TD*
D11*
G04 #@! TO.C,GPS_conn_5pin1*
X158170000Y-64150000D03*
D10*
X160710000Y-64150000D03*
X163250000Y-64150000D03*
X165790000Y-64150000D03*
X168330000Y-64150000D03*
G04 #@! TD*
D12*
G04 #@! TO.C,U1*
X155460000Y-116470000D03*
X155460000Y-103770000D03*
X155460000Y-85990000D03*
X155460000Y-75830000D03*
X155460000Y-113930000D03*
X155460000Y-91070000D03*
X155460000Y-108850000D03*
X155460000Y-106310000D03*
X155460000Y-111390000D03*
X155460000Y-88530000D03*
X155460000Y-93610000D03*
X155460000Y-80910000D03*
X155460000Y-101230000D03*
X155460000Y-73290000D03*
X155460000Y-78370000D03*
X155460000Y-83450000D03*
X155460000Y-70750000D03*
X155460000Y-96150000D03*
X155460000Y-68210000D03*
X155460000Y-98690000D03*
X170700000Y-116470000D03*
X170700000Y-113930000D03*
X170700000Y-111390000D03*
X170700000Y-108850000D03*
X170700000Y-106310000D03*
X170700000Y-98690000D03*
X170700000Y-103770000D03*
X170700000Y-101230000D03*
X170700000Y-96150000D03*
X170700000Y-93610000D03*
X170700000Y-91070000D03*
X170700000Y-85990000D03*
X170700000Y-88530000D03*
X170700000Y-83450000D03*
X170700000Y-80910000D03*
X170700000Y-73290000D03*
X170700000Y-78370000D03*
X170700000Y-75830000D03*
X170700000Y-70750000D03*
X170700000Y-68210000D03*
G04 #@! TD*
M02*
